<svg viewBox="0 0 138.5 69.5" xmlns="http://www.w3.org/2000/svg">
  <defs>
    <style>.cls-1 {
      fill: #282e69;
      stroke: #273068
    }

    .cls-1, .cls-10, .cls-11, .cls-12, .cls-13, .cls-14, .cls-15, .cls-16, .cls-2, .cls-4, .cls-5, .cls-6, .cls-7, .cls-8, .cls-9 {
      stroke-miterlimit: 10
    }

    .cls-1, .cls-10, .cls-11, .cls-12, .cls-13, .cls-14, .cls-15, .cls-16, .cls-2, .cls-3, .cls-4, .cls-5, .cls-6, .cls-7, .cls-8, .cls-9 {
      stroke-width: .5px
    }

    .cls-2 {
      fill: #e1def0;
      stroke: #e1def0
    }

    .cls-11, .cls-3 {
      fill: #66b32e
    }

    .cls-10, .cls-11, .cls-12, .cls-13, .cls-14, .cls-15, .cls-16, .cls-3, .cls-4, .cls-5, .cls-6, .cls-7, .cls-8, .cls-9 {
      stroke: #000
    }

    .cls-3 {
      stroke-linejoin: round
    }

    .cls-4 {
      fill: none
    }

    .cls-5 {
      fill: #c0bfc4
    }

    .cls-6 {
      fill: #69c5da
    }

    .cls-7 {
      fill: #a1519a
    }

    .cls-8 {
      fill: #f9ef88
    }

    .cls-9 {
      fill: #e41f1a
    }

    .cls-10 {
      fill: #f08242
    }

    .cls-12 {
      fill: #772181
    }

    .cls-13 {
      fill: #3a70b7
    }

    .cls-14 {
      fill: #077f36
    }

    .cls-15 {
      fill: #f7ee81
    }

    .cls-16 {
      fill: #6ac6dc
    }</style>
  </defs>
  <g>
    <g>
      <rect class="cls-1" height="34.5" width="138" x=".3" y="34.8"/>
      <rect class="cls-2" height="34.5" width="138" x=".3" y=".3"/>
      <polygon class="cls-3" points=".3 34.8 69.3 .3 138.3 34.8 .3 34.8"/>
      <rect class="cls-4" height="34.5" width="15.3" x=".3" y=".3"/>
      <rect class="cls-4" height="34.5" width="15.3" x="15.6" y=".3"/>
      <rect class="cls-4" height="34.5" width="15.3" x="30.9" y=".3"/>
      <rect class="cls-4" height="34.5" width="15.3" x="46.3" y=".3"/>
      <rect class="cls-4" height="34.5" width="15.3" x="61.6" y=".3"/>
      <rect class="cls-4" height="34.5" width="15.3" x="76.9" y=".3"/>
      <rect class="cls-4" height="34.5" width="15.3" x="92.3" y=".3"/>
      <rect class="cls-4" height="34.5" width="15.3" x="107.6" y=".3"/>
      <rect class="cls-4" height="34.5" width="15.3" x="122.9" y=".3"/>
      <rect class="cls-4" height="4.3" width="138" x=".3" y=".3"/>
      <rect class="cls-4" height="4.3" width="138" x=".3" y="4.6"/>
      <rect class="cls-4" height="4.3" width="138" x=".3" y="8.9"/>
      <rect class="cls-4" height="4.3" width="138" x=".3" y="13.2"/>
      <rect class="cls-4" height="4.3" width="138" x=".3" y="17.5"/>
      <rect class="cls-4" height="4.3" width="138" x=".3" y="21.8"/>
      <rect class="cls-4" height="4.3" width="138" x=".3" y="26.1"/>
      <rect class="cls-4" height="4.3" width="138" x=".3" y="30.4"/>
      <rect class="cls-5" height="21.6" width="46" x="46.3" y="13.2"/>
      <rect class="cls-4" height="20.1" width="43.1" x="47.7" y="14.6"/>
      <polygon class="cls-6"
               points="39.1 25.8 34 22.3 32.6 23.6 37.1 27.3 36.5 31 34.9 32.7 34.7 35.2 32.6 36.6 32.6 38.4 34 38.4 36.5 35.8 37.1 33.9 38.7 33.8 39.4 34.9 39.4 36.5 36.8 39 38.2 40.4 41.6 36.8 41.6 34 39.8 31.4 40 29.4 41.5 29.5 41.9 29.6 43.3 32.2 44.6 31.6 44.6 29.8 42.7 28 41.1 26.6 39.1 25.8"/>
      <ellipse class="cls-6" cx="40" cy="24.3" rx="1.6" ry="1.9"/>
      <ellipse class="cls-7" cx="50.2" cy="24.6" rx="1.6" ry="1.9"/>
      <ellipse class="cls-8" cx="59" cy="31" rx="1.6" ry="1.9"/>
      <ellipse class="cls-9" cx="68.7" cy="25.9" rx="1.6" ry="1.9"/>
      <ellipse class="cls-10" cx="76.6" cy="43.1" rx="1.6" ry="1.9"/>
      <ellipse class="cls-11" cx="64.1" cy="42.7" rx="1.6" ry="1.9"/>
      <ellipse class="cls-12" cx="45.4" cy="41.1" rx="1.6" ry="1.9"/>
      <ellipse class="cls-13" cx="54.2" cy="50.6" rx="1.6" ry="1.9"/>
      <ellipse class="cls-14" cx="83" cy="24.8" rx="1.6" ry="1.9"/>
      <ellipse class="cls-15" cx="91.2" cy="31" rx="1.6" ry="1.9"/>
      <ellipse class="cls-7" cx="99.1" cy="26.8" rx="1.6" ry="1.9"/>
      <ellipse class="cls-16" cx="96.7" cy="47.5" rx="1.6" ry="1.9"/>
      <polygon class="cls-7"
               points="43.5 24 45.1 23.8 47.8 26.8 50.2 26.5 52.3 26.5 54.9 24.4 56.8 25.6 54.3 27.9 51.8 29.3 51.5 33.8 52.8 35.3 52.9 37.7 51.8 39.2 49.7 40.4 49.7 37.5 50.4 36.5 49.7 34.8 48.2 36.2 46.3 38.4 44.3 38.7 43.5 37.7 44.6 36 46.8 34.4 48.1 33.1 48.5 30 47.3 28.4 43.2 25.6 43.5 24"/>
      <polygon class="cls-8"
               points="53.8 29.7 53.8 32.1 55.9 33.5 55.9 38.1 53.9 39.8 53.6 41 50.9 43.7 51.8 44.9 52.6 44.6 54.8 43 57.4 39.5 58.3 40.4 58.3 42.1 55.5 44.6 55.9 46.3 57.9 46 60.6 43.2 60.9 39.9 59.9 38.9 59.9 36.6 61.1 35.2 64.1 32.3 65.2 30.6 65.2 29.7 63.7 29.7 60.6 32.7 59.2 33.3 58.3 33.3 55.9 30.8 54.6 29.4 53.8 29.7"/>
      <polygon class="cls-9"
               points="63.6 24.6 62.3 25.9 63.6 27.9 66.4 30.5 66.6 34.8 65.7 35.8 65.5 40.8 67.7 40.6 68.1 36.5 69 35.1 69.8 35.6 69.8 40.8 71.9 40.8 71.9 35.2 71.3 34 70.6 33.4 70.6 31 73.7 27.9 74.8 26.2 74.7 24 73.5 24.3 71.5 26.5 70.1 28.4 68.7 27.9 67.5 27.9 65.7 27.2 63.6 24.6"/>
      <polygon class="cls-14"
               points="75.9 31.5 75.6 34 77.9 36 79.9 36.7 81.4 35.4 83.3 35.7 83.8 36.7 83.6 38.5 82.7 40.4 82.6 41.7 84 41.7 85.8 40 86.6 37.2 86.5 35.7 85.5 33.8 84.7 31.5 84.7 28.7 86.1 27.3 88.1 25.9 89.8 25.1 90 23.4 88.2 23.3 85.9 25.2 83.8 26.8 83 26.8 80.4 25.7 78.3 23.3 77.4 23.8 77.8 25.9 79.5 28.4 81.4 30.2 81.2 32.4 80.1 33.8 78.6 33.4 77.2 32.1 75.9 31.5"/>
      <polygon class="cls-15"
               points="86.4 28.7 86.1 32.1 86.9 33.4 88.1 35.7 88.1 42.1 86.6 43.9 85.1 47.1 84.7 49.2 84.7 49.8 86.6 49.8 87.5 47.2 88.4 44.6 90 43.4 90.6 43.6 90.9 45 90.6 46.3 90 48 90 50.8 91.2 50.4 92.2 48.5 93.9 45.9 93.5 43.9 92.5 41.7 91.4 39.8 91.7 37.5 92.5 36.4 94.3 39.2 95.6 40.4 96.5 40.4 96.5 38.2 94.7 36.5 93.5 34 92.3 32.9 90.3 33.2 89.1 32.5 88.3 30.8 87.2 28.3 86.4 28.7"/>
      <polygon class="cls-7"
               points="93.8 26.2 93.8 28.1 95.5 29.6 97.3 30.5 98.1 32.4 97.5 38.5 96.5 40.4 95.9 41.7 97.5 42.3 99.3 40.4 99.8 37.9 100.2 36.6 100.4 39.1 100 40.8 99.7 42.3 100.7 43.1 102 43.1 103 40.8 102.8 34.5 101.9 33.3 101.7 30.2 103.5 28.3 104.6 26.8 105.9 26.2 105.7 24.6 104.3 24.9 103.1 26.1 101.5 27.9 100.4 29.4 99.4 29.4 98 29 96.5 27.7 95.3 26.5 93.8 26.2"/>
      <polygon class="cls-16"
               points="94.2 50.5 91.3 54.9 90.8 56.9 90.6 58.8 91.8 58.8 93.8 56.3 95.1 53.2 95.9 54.7 95.5 56.7 95.1 58.3 94.1 59.4 93.8 61.1 93.8 64.9 95.1 65.4 96.2 64.2 96.5 60.9 97.5 59.1 97.1 65.4 98.9 66 100 64.8 99.8 60.8 100 58.7 99.8 57.3 99.3 51.7 100.7 50.2 102.9 48.3 104.3 46.3 102.5 45.4 100.7 45.8 99.5 48 98.6 49.8 97.5 50 95.9 50 94.2 50.5"/>
      <polygon class="cls-10"
               points="80.2 38.6 79.5 44.2 77.6 45.6 76 45.9 72.9 45.9 72.1 46.6 70.3 49 70.8 51.7 71 52.6 72.9 52.1 73 49.1 73.3 47.9 75.4 49.5 75.4 50.5 74.3 52 73.7 54.1 72.8 55 70.3 55 69.9 56 69.9 57.5 72.5 57.8 74.3 56.8 76.1 55.3 77 52.9 77.7 53.9 77.5 56.8 77 58.9 76.4 60.2 77.8 61.3 79.8 59.6 81 57.2 80.6 54.3 80.7 53.3 79.2 51.7 78.9 48.6 79 46.9 81 46.3 81.4 44.6 81.8 40.4 81.6 38.9 80.2 38.6"/>
      <polygon class="cls-11"
               points="64.1 44.6 60.8 44.6 59.8 46.3 58 47.9 58 49 58.5 49.8 59.9 49.5 61.4 47.5 62.4 47.5 62.4 48.5 62.4 50 61.7 51.7 61.6 53.5 61 54.8 60.6 57.6 60.6 59.6 61.9 60.1 63 58.7 63.7 55.3 64.7 52.4 65.7 53.7 65.2 54.8 64.7 57.1 64.7 59.5 65.7 60.3 66.5 59.1 67.7 56.1 68.5 53 66.7 50.8 66.4 48.9 66.4 46.6 68.2 45.4 70.3 44.1 70.3 41.7 69.8 40.8 68.5 42.1 68.3 43.1 65.7 44.3 64.1 44.6"/>
      <polygon class="cls-13"
               points="53.7 52.9 52.2 52.1 50.7 50.7 48.4 50.3 48.4 51.6 50.5 53.9 52.1 55.6 52.6 57.2 52.3 59 51.4 60.3 50.9 63.3 50.4 66.7 51 68 52.6 67.8 54 63.6 54.8 61.5 54.8 60.7 55.9 64.3 55.6 66.9 55.9 68.3 58 68.3 58.4 64.5 58 61 56.8 59.3 56.8 55.9 57.1 54.5 58.9 52.5 59.6 50.7 59.6 49.5 57.8 49 56.8 51 55.6 52.7 54.5 53.5 53.7 52.9"/>
      <polygon class="cls-12"
               points="43.8 43.1 43 40.4 42.1 38.4 41 37.9 39.5 38.6 39.6 40 41 40.1 41.5 42.1 42 44.6 41.3 46.3 41.6 48.4 41.8 50.5 41.1 52.1 40.1 54.3 39.3 56.6 41.6 56 42.9 54.3 44.2 51.8 45.1 51.7 44.3 54.3 44 56.6 45.4 57.3 47 55.9 47.4 51.5 46.5 49.2 45.4 48.4 46.2 45 47 46.3 47.4 47.8 48.4 49.7 50 49.5 49.5 47.6 49 45.7 47.8 43.8 46.3 42.7 45.1 43.6 43.8 43.1"/>
    </g>
  </g>
</svg>
